#!OML:ASF E:\acrobat2\Project_11_07_03\Capture day 1\Session 1\Acrobat.ASF
:FULLY-SPECIFIED
:DEGREES
50
root 7.12532 14.596 -3.41731 131.412 13.1097 -192.088
lowerback 7.86394 2.21061 4.64163
upperback 0.418044 3.49037 1.9549
thorax -3.82237 1.68986 -0.957065
lowerneck -1.87346 1.87893 -19.3654
upperneck 9.13231 2.32588 27.2789
head 2.23952 1.91036 12.409
rclavicle 1.27222e-014 3.65764e-014
rhumerus -21.9407 -23.0732 -13.6119
rradius 28.1485
rwrist -22.0968
rhand -15.2988 -47.9816
rfingers 7.12502
rthumb 10.8765 282.32
lclavicle 1.27222e-014 3.65764e-014
lhumerus 8.47021 23.1581 36.3632
lradius 51.5334
lwrist 53.8503
lhand 1.18931 -382.509
lfingers 7.12502
lthumb 26.729 5.62331
rfemur 14.3041 -21.0814 4.41323
rtibia 72.3701
rfoot -209.292 -181.516
rtoes 1.8568
lfemur -27.0512 -4.31266 -20.8599
ltibia 14.7139
lfoot 11.4187 11.4239
ltoes 56.139
51
root 7.22764 14.6225 -4.06924 135.287 15.3585 -189.155
lowerback 7.55315 2.19602 6.53906
upperback 1.86643 3.61756 2.19373
thorax -2.03898 1.83951 -1.71733
lowerneck -9.35898 0.663419 -9.62657
upperneck 16.0256 0.859893 12.2458
head 6.25896 1.02469 5.66851
rclavicle -9.54166e-015 -7.31528e-014
rhumerus -23.1315 -31.5622 -16.5453
rradius 27.1383
rwrist -13.8628
rhand -17.4081 -45.4776
rfingers 7.12502
rthumb 8.84155 284.728
lclavicle -9.54166e-015 -7.31528e-014
lhumerus 10.8781 19.8878 42.0803
lradius 47.4103
lwrist 53.095
lhand -4.54109 -391.366
lfingers 7.12502
lthumb 21.2343 -2.50907
rfemur 12.7276 -21.1901 9.26804
rtibia 74.0064
rfoot -209.829 -180.567
rtoes -3.45937
lfemur -23.5217 -0.510764 -18.6623
ltibia 14.9186
lfoot 18.5052 1.4035
ltoes 27.2393
52
root 7.40394 14.6741 -4.79429 141.937 14.9955 -183.055
lowerback 5.93027 1.22717 9.11128
upperback 0.656033 2.39259 1.86386
thorax -2.3651 1.16207 -3.35244
lowerneck -23.5701 0.578583 -7.48365
upperneck 29.38 0.171944 14.3133
head 13.9369 1.77063 7.34248
rclavicle 1.43125e-014 -4.29375e-014
rhumerus -26.8302 -40.3401 -18.695
rradius 26.2061
rwrist -4.38438
rhand -14.111 -43.6017
rfingers 7.12502
rthumb 12.0221 286.764
lclavicle 1.43125e-014 -4.29375e-014
lhumerus 11.1347 13.9535 44.6372
lradius 43.9845
lwrist 52.2507
lhand -8.15158 -398.542
lfingers 7.12502
lthumb 17.763 -9.33301
rfemur 10.918 -24.7824 15.1321
rtibia 74.0697
rfoot -210.915 -180.733
rtoes -6.26165
lfemur -21.0191 -5.61515 -14.1993
ltibia 12.0489
lfoot 18.7812 4.80512
ltoes 31.2437
53
root 7.49682 14.8091 -5.47591 146.894 20.1088 -182.129
lowerback 5.43163 2.46675 11.7336
upperback -1.90174 4.31815 1.58718
thorax -4.3475 1.86488 -5.25986
lowerneck -12.6233 0.642261 -3.56046
upperneck 26.6584 0.690864 9.15567
head 10.5615 1.68199 4.11923
rclavicle -1.23246e-014 -4.05521e-014
rhumerus -32.2424 -27.5107 -22.6861
rradius 30.4333
rwrist -15.172
rhand -9.00715 -45.3966
rfingers 7.12502
rthumb 16.9396 285.322
lclavicle -1.23246e-014 -4.05521e-014
lhumerus 5.42783 7.99241 46.9418
lradius 44.0817
lwrist 49.3763
lhand -13.3928 -402.452
lfingers 7.12502
lthumb 12.7145 -12.8586
rfemur 7.11718 -21.3599 20.378
rtibia 75.5765
rfoot -211.777 -180.162
rtoes -9.95549
lfemur -18.2799 -2.61734 -9.6339
ltibia 12.1333
lfoot 15.5491 1.05216
ltoes 15.4743
54
root 7.68259 14.912 -6.36251 151.82 15.3408 -180.885
lowerback 0.493994 -0.238713 6.94227
upperback -0.97904 -0.0944267 2.21846
thorax -1.30278 -0.0536119 -1.60239
lowerneck -15.8475 2.32302 -6.6721
upperneck 26.9371 3.28395 10.7232
head 10.9823 2.65394 5.64204
rclavicle 8.74653e-015 -1.59028e-015
rhumerus -26.82 -26.6157 -30.1984
rradius 30.8125
rwrist -18.22
rhand -9.83869 -43.4592
rfingers 7.12502
rthumb 16.139 287.193
lclavicle 8.74653e-015 -1.59028e-015
lhumerus 0.881625 12.6305 51.3855
lradius 44.6138
lwrist 46.4927
lhand -17.3517 -408.894
lfingers 7.12502
lthumb 8.89593 -19.1011
rfemur 7.88981 -26.1606 17.2427
rtibia 73.7557
rfoot -212.171 -179.572
rtoes -13.2239
lfemur -17.8559 -3.62155 -12.6739
ltibia 13.5614
lfoot 15.4061 -7.8293
ltoes -19.3433
55
root 7.77754 15.0233 -7.23491 156.323 14.9126 -181.107
lowerback -3.57062 -0.261422 4.85169
upperback -0.318336 -0.490952 1.94068
thorax 1.64923 -0.181236 -0.7472
lowerneck -14.9588 2.4769 -6.06876
upperneck 26.8078 3.40679 10.6343
head 10.7604 2.76958 5.4772
rclavicle -1.59028e-014 -7.95139e-014
rhumerus -25.7559 -34.4894 -33.7615
rradius 28.7531
rwrist -11.5105
rhand -8.29699 -39.3536
rfingers 7.12502
rthumb 17.6231 291.425
lclavicle -1.59028e-014 -7.95139e-014
lhumerus 0.521423 13.9487 56.9676
lradius 44.1697
lwrist 42.6854
lhand -20.8175 -413.951
lfingers 7.12502
lthumb 5.55053 -24.0436
rfemur 7.30486 -26.6344 15.7303
rtibia 73.0441
rfoot -211.466 -176.627
rtoes -12.2731
lfemur -15.2391 -7.35178 -13.3862
ltibia 11.976
lfoot 7.32835 -8.37326
ltoes 29.2398
56
root 7.90265 15.123 -7.98447 159.411 13.9859 -181.857
lowerback -3.566 -0.868129 2.85532
upperback -1.45726 -1.20424 0.336899
thorax 0.450329 -0.589057 -1.30086
lowerneck -10.9898 3.05892 -3.96566
upperneck 24.0911 3.60866 11.3026
head 9.02975 3.06875 5.04876
rclavicle 8.98507e-014 0
rhumerus -28.2599 -38.9878 -36.4974
rradius 26.236
rwrist -3.65953
rhand -6.53396 -35.3864
rfingers 7.12502
rthumb 19.319 295.553
lclavicle 8.98507e-014 0
lhumerus -2.31217 13.3426 59.1367
lradius 43.5801
lwrist 38.776
lhand -24.0264 -418.381
lfingers 7.12502
lthumb 2.45184 -28.4149
rfemur 7.58982 -26.3799 13.7639
rtibia 72.4193
rfoot -209.07 -172.164
rtoes -4.7101
lfemur -15.767 -2.791 -14.4433
ltibia 6.71632
lfoot 13.5738 7.07525
ltoes 68.9634
57
root 8.07168 15.2424 -8.59348 160.489 15.4606 -185.899
lowerback -1.91692 0.334829 -2.57681
upperback -1.8374 0.529539 -0.806501
thorax -0.82332 0.31176 0.623303
lowerneck -6.39277 2.91606 -5.25801
upperneck 21.0494 3.52813 12.4649
head 7.09778 2.91023 5.32926
rclavicle -1.23246e-014 -1.39149e-014
rhumerus -33.2555 -38.2128 -36.097
rradius 25.475
rwrist -2.54981
rhand -7.35529 -34.3698
rfingers 7.12502
rthumb 18.5291 296.493
lclavicle -1.23246e-014 -1.39149e-014
lhumerus -3.72486 10.3962 63.2071
lradius 41.4439
lwrist 35.2248
lhand -29.0744 -419.335
lfingers 7.12502
lthumb -2.42355 -29.3691
rfemur 6.35795 -21.4246 10.8755
rtibia 72.1945
rfoot -204.032 -167.918
rtoes 4.29603
lfemur -17.3528 1.15405 -18.0808
ltibia 8.03064
lfoot 5.01188 18.5257
ltoes 69.9388
58
root 8.12577 15.4494 -9.15241 164.152 15.095 -185.018
lowerback -0.564887 0.420083 -2.93046
upperback -2.26701 0.594634 -1.00343
thorax -2.027 0.370073 0.603874
lowerneck -3.3077 3.12978 -7.51295
upperneck 17.5046 3.80396 14.3749
head 5.28456 2.84117 6.08146
rclavicle 2.23633e-015 -1.09332e-014
rhumerus -39.9863 -23.0149 -40.3465
rradius 31.1958
rwrist -17.468
rhand -9.44502 -37.4341
rfingers 7.12502
rthumb 16.518 293.249
lclavicle 2.23633e-015 -1.09332e-014
lhumerus -3.30021 8.49419 67.4755
lradius 37.2494
lwrist 30.2712
lhand -33.9369 -412.478
lfingers 7.12502
lthumb -7.11864 -22.618
rfemur 3.96574 -19.2469 12.4936
rtibia 71.6793
rfoot -198.683 -165.351
rtoes 7.94078
lfemur -20.3904 0.392034 -17.5481
ltibia 9.2522
lfoot 14.266 10.7844
ltoes 67.2943
59
root 8.1874 15.7124 -9.73527 166.966 14.4872 -185.868
lowerback 0.74418 0.56182 -4.12519
upperback -2.1286 0.722452 -2.05861
thorax -2.6289 0.467564 0.170312
lowerneck -4.54272 3.12191 -6.40278
upperneck 17.7519 3.87256 12.9042
head 5.64494 2.8455 5.46167
rclavicle 5.41688e-015 -3.77691e-014
rhumerus -42.4885 -25.1167 -42.5764
rradius 30.1187
rwrist -16.6242
rhand -13.2263 -38.4427
rfingers 7.12502
rthumb 12.8751 291.974
lclavicle 5.41688e-015 -3.77691e-014
lhumerus -1.71234 7.15592 70.8001
lradius 31.9496
lwrist 25.3824
lhand -34.5153 -410.81
lfingers 7.12502
lthumb -7.67696 -20.9689
rfemur 2.09085 -16.6825 11.9274
rtibia 70.5089
rfoot -194.951 -164.918
rtoes 1.30338
lfemur -22.18 2.72012 -19.6965
ltibia 8.80086
lfoot 17.8268 9.59938
ltoes 65.901
60
root 8.22986 16.0074 -10.3603 169.02 15.1055 -186.247
lowerback 6.51603 0.695231 -4.44181
upperback -4.96974 0.469981 -2.86758
thorax -8.94498 0.498887 -0.633647
lowerneck -3.73765 2.58711 -5.13454
upperneck 18.0522 3.17646 12.0183
head 5.72018 2.545 4.92098
rclavicle 5.60573e-014 -2.74323e-014
rhumerus -47.1942 -23.2279 -44.451
rradius 28.2488
rwrist -15.1806
rhand -18.4106 -37.7265
rfingers 7.12502
rthumb 7.87407 292.44
lclavicle 5.60573e-014 -2.74323e-014
lhumerus -9.1852 -0.710803 71.6315
lradius 31.4119
lwrist 24.5771
lhand -33.2278 -405.648
lfingers 7.12502
lthumb -6.4341 -15.766
rfemur 1.64761 -13.605 11.5484
rtibia 68.29
rfoot -193.429 -166.189
rtoes -15.0167
lfemur -21.8532 1.73868 -20.0899
ltibia 7.1703
lfoot 15.9653 9.92346
ltoes 66.8113
61
root 8.25101 16.3328 -11.1049 170.04 18.5127 -186.399
lowerback 7.27643 1.70998 -4.2461
upperback -4.56088 1.78338 -3.028
thorax -8.96693 1.1035 -1.11497
lowerneck -4.08328 2.76878 -3.97743
upperneck 17.2089 3.44903 10.6578
head 5.55533 2.58489 4.27209
rclavicle 3.97569e-016 -1.31198e-014
rhumerus -47.7696 -22.4082 -47.8365
rradius 26.6402
rwrist -14.0412
rhand -20.5656 -37.2505
rfingers 7.12502
rthumb 5.79372 292.849
lclavicle 3.97569e-016 -1.31198e-014
lhumerus -13.142 -8.43112 74.609
lradius 30.491
lwrist 18.6547
lhand -43.6067 -404.481
lfingers 7.12502
lthumb -16.4426 -15.1577
rfemur 2.64791 -8.69569 11.2161
rtibia 65.6376
rfoot -192.384 -167.483
rtoes -27.4364
lfemur -18.3106 -0.695345 -18.5987
ltibia 3.32274
lfoot 9.66523 9.6335
ltoes 67.2573
62
root 8.29625 16.6201 -11.7641 171.986 20.0693 -186.995
lowerback 5.43076 1.73639 -5.05063
upperback -3.32193 1.90309 -3.23822
thorax -6.58179 1.16053 -0.77913
lowerneck -6.11761 3.46807 -3.76309
upperneck 16.4033 4.31636 10.2462
head 5.60946 2.92668 4.16912
rclavicle -9.64106e-015 -2.3059e-014
rhumerus -46.6124 -21.7353 -51.6528
rradius 26.4037
rwrist -13.4031
rhand -17.9635 -36.1321
rfingers 7.12502
rthumb 8.30557 294.051
lclavicle -9.64106e-015 -2.3059e-014
lhumerus -14.3707 -8.19404 76.2863
lradius 30.1759
lwrist 17.0622
lhand -41.0042 -396.218
lfingers 7.12502
lthumb -13.9357 -6.7046
rfemur 2.42143 -6.42079 10.0095
rtibia 63.4712
rfoot -191.913 -169.627
rtoes -37.0017
lfemur -17.3012 0.704053 -19.5263
ltibia 1.97669
lfoot 10.4428 7.9113
ltoes 66.6644
63
root 8.36052 16.9297 -12.3058 174.202 19.8702 -187.464
lowerback 4.91584 1.28548 -6.24984
upperback -2.94322 1.28108 -3.42654
thorax -5.89552 0.894008 -0.212952
lowerneck -7.3771 3.9932 -4.12803
upperneck 16.0893 4.99987 10.4604
head 5.66184 3.23343 4.35945
rclavicle 2.48481e-015 3.18055e-015
rhumerus -47.199 -22.0954 -53.3592
rradius 26.974
rwrist -13.6888
rhand -15.4573 -35.493
rfingers 7.12502
rthumb 10.7237 294.801
lclavicle 2.48481e-015 3.18055e-015
lhumerus -16.0488 -6.91915 77.7452
lradius 30.0595
lwrist 17.714
lhand -24.8974 -389.596
lfingers 7.12502
lthumb 1.61068 0.377509
rfemur 1.59982 -6.47423 8.91623
rtibia 61.7176
rfoot -191.515 -171.42
rtoes -44.6193
lfemur -18.3109 5.47579 -21.6739
ltibia 2.79718
lfoot 16.283 6.13609
ltoes 66.3423
64
root 8.43103 17.2525 -12.8697 176.314 20.5516 -187.7
lowerback 4.38349 1.25437 -6.94814
upperback -2.77359 1.26532 -3.62158
thorax -5.42493 0.905993 -0.00846301
lowerneck -8.80784 4.18937 -3.77205
upperneck 15.994 5.22349 10.113
head 5.88711 3.32894 4.24636
rclavicle -2.87741e-014 3.49861e-014
rhumerus -47.9133 -22.1375 -55.5636
rradius 28.9909
rwrist -19.2581
rhand -20.1104 -40.5261
rfingers 7.12502
rthumb 6.23323 289.586
lclavicle -2.87741e-014 3.49861e-014
lhumerus -18.3726 -6.5718 79.024
lradius 29.9366
lwrist 15.2705
lhand -26.5987 -391.033
lfingers 7.12502
lthumb -0.0325316 -1.05354
rfemur 0.18964 -6.20774 8.25617
rtibia 60.7058
rfoot -189.811 -171.024
rtoes -46.6598
lfemur -18.8426 6.47212 -22.3343
ltibia 3.23391
lfoot 17.0483 4.61259
ltoes 66.496
